<svg width="34" height="23" viewBox="0 0 34 23" fill="none" xmlns="http://www.w3.org/2000/svg">
<path d="M8.19061 22.2012C1.91718 13.1777 0.799988 12.2324 0.799988 8.88086C0.799988 4.32617 4.45233 0.630859 9.04999 0.630859C13.6047 0.630859 17.3 4.32617 17.3 8.88086C17.3 12.2324 16.1398 13.1777 9.86639 22.2012C9.47968 22.8027 8.57733 22.8027 8.19061 22.2012ZM9.04999 12.3184C10.9406 12.3184 12.4875 10.8145 12.4875 8.88086C12.4875 6.99023 10.9406 5.44336 9.04999 5.44336C7.11639 5.44336 5.61249 6.99023 5.61249 8.88086C5.61249 10.8145 7.11639 12.3184 9.04999 12.3184Z" fill="black"/>
</svg>
